<?xml version="1.0" encoding="UTF-8"?>
<svg xmlns="http://www.w3.org/2000/svg" xmlns:xlink="http://www.w3.org/1999/xlink" width="64pt" height="64pt" viewBox="0 0 64 64" version="1.1">
<g id="surface1476165">
<path style=" stroke:none;fill-rule:nonzero;fill:rgb(10.196078%,73.72549%,61.176471%);fill-opacity:1;" d="M 18.984375 17 C 21.191406 17 22.984375 15.207031 22.984375 13 C 22.984375 10.792969 21.191406 9 18.984375 9 C 16.777344 9 14.984375 10.792969 14.984375 13 C 14.984375 15.207031 16.777344 17 18.984375 17 "/>
<path style=" stroke:none;fill-rule:nonzero;fill:rgb(98.039216%,93.72549%,87.058824%);fill-opacity:1;" d="M 18.984375 17 C 21.191406 17 22.984375 15.207031 22.984375 13 C 22.984375 10.792969 21.191406 9 18.984375 9 C 16.777344 9 14.984375 10.792969 14.984375 13 C 14.984375 15.207031 16.777344 17 18.984375 17 "/>
<path style=" stroke:none;fill-rule:nonzero;fill:rgb(20.392157%,28.627451%,36.862745%);fill-opacity:1;" d="M 18.984375 18 C 16.226562 18 13.984375 15.757812 13.984375 13 C 13.984375 10.242188 16.226562 8 18.984375 8 C 21.742188 8 23.984375 10.242188 23.984375 13 C 23.984375 15.757812 21.742188 18 18.984375 18 Z M 18.984375 10 C 17.328125 10 15.984375 11.347656 15.984375 13 C 15.984375 14.652344 17.328125 16 18.984375 16 C 20.636719 16 21.984375 14.652344 21.984375 13 C 21.984375 11.347656 20.640625 10 18.984375 10 Z M 18.984375 10 "/>
<path style=" stroke:none;fill-rule:nonzero;fill:rgb(10.196078%,73.72549%,61.176471%);fill-opacity:1;" d="M 17.722656 58.261719 C 16.816406 58.285156 15.992188 57.742188 15.585938 56.929688 C 14.660156 55.074219 12.789062 51.335938 11.785156 49.332031 C 11.363281 48.488281 11.363281 47.496094 11.785156 46.652344 L 17.984375 34.238281 L 18.007812 28.230469 L 10.230469 32.859375 C 10.15625 32.878906 10.078125 32.886719 10 32.886719 C 9.914062 32.886719 9.828125 32.875 9.746094 32.851562 L 4.523438 30.167969 C 3.699219 29.742188 2.972656 28.636719 3.003906 27.714844 C 3.050781 26.164062 4.371094 25.210938 5.59375 25.210938 C 5.992188 25.210938 6.382812 25.304688 6.75 25.488281 L 10.070312 27.148438 L 16.46875 22.882812 L 26.191406 18.992188 L 34.78125 18.992188 C 35.824219 18.992188 36.777344 19.519531 37.328125 20.402344 L 41.082031 25.640625 C 41.480469 26.191406 41.632812 26.867188 41.507812 27.535156 C 41.386719 28.207031 41.007812 28.785156 40.441406 29.164062 C 39.9375 29.5 39.445312 29.648438 38.941406 29.640625 C 38.140625 29.632812 37.164062 28.976562 36.742188 28.296875 C 35.839844 26.847656 34.9375 24.640625 34.925781 24.617188 L 34.675781 23.992188 L 28.003906 23.992188 L 27.984375 36.050781 L 29.019531 46.234375 L 31.769531 53.109375 C 32.007812 53.707031 31.988281 54.355469 31.71875 54.9375 C 31.449219 55.519531 30.964844 55.953125 30.355469 56.15625 C 30.019531 56.269531 29.753906 56.308594 29.480469 56.308594 C 28.632812 56.296875 27.863281 55.820312 27.425781 55.09375 L 23 47.714844 L 22.984375 41.101562 C 22.984375 40.050781 21.585938 39.679688 21.066406 40.597656 L 16.894531 47.917969 L 19.816406 55.214844 C 20.046875 55.78125 20.027344 56.402344 19.769531 56.957031 C 19.515625 57.511719 19.054688 57.921875 18.472656 58.117188 C 18.183594 58.210938 17.953125 58.253906 17.722656 58.261719 Z M 17.722656 58.261719 "/>
<path style=" stroke:none;fill-rule:nonzero;fill:rgb(20.392157%,28.627451%,36.862745%);fill-opacity:1;" d="M 34.78125 19.992188 C 35.476562 19.992188 36.113281 20.34375 36.480469 20.933594 C 36.503906 20.96875 36.527344 21.003906 36.550781 21.039062 L 40.269531 26.222656 C 40.507812 26.554688 40.597656 26.957031 40.527344 27.359375 C 40.453125 27.761719 40.226562 28.105469 39.886719 28.335938 L 39.8125 28.382812 C 39.558594 28.554688 39.265625 28.640625 38.96875 28.640625 C 38.46875 28.640625 38.003906 28.394531 37.726562 27.980469 C 36.984375 26.867188 36.121094 24.902344 35.855469 24.242188 C 35.546875 23.488281 34.816406 22.996094 34 22.996094 L 29 22.996094 C 27.898438 22.996094 27.003906 23.890625 27 24.992188 L 26.984375 35.996094 C 26.984375 36.066406 26.988281 36.136719 26.996094 36.203125 L 28.011719 46.195312 C 28.03125 46.382812 28.074219 46.566406 28.144531 46.738281 L 30.839844 53.480469 C 30.976562 53.820312 30.964844 54.1875 30.8125 54.515625 C 30.660156 54.847656 30.386719 55.09375 30.039062 55.207031 L 29.964844 55.230469 C 29.816406 55.28125 29.660156 55.308594 29.507812 55.308594 C 29.011719 55.308594 28.566406 55.058594 28.316406 54.636719 L 23.996094 47.441406 L 23.984375 40.996094 C 23.980469 40.089844 23.371094 39.300781 22.492188 39.066406 C 22.324219 39.019531 22.152344 39 21.984375 39 C 21.277344 39 20.609375 39.375 20.246094 40.011719 L 16.261719 47.003906 C 15.960938 47.535156 15.917969 48.171875 16.144531 48.738281 L 18.886719 55.585938 C 19.054688 56.003906 18.945312 56.359375 18.863281 56.535156 C 18.78125 56.710938 18.582031 57.023438 18.152344 57.167969 L 18.082031 57.191406 C 17.945312 57.238281 17.804688 57.261719 17.660156 57.261719 C 17.171875 57.261719 16.734375 56.988281 16.515625 56.554688 L 12.683594 48.886719 C 12.402344 48.328125 12.402344 47.660156 12.679688 47.097656 L 18.773438 34.894531 C 18.910156 34.617188 18.984375 34.316406 18.984375 34.007812 L 19 30.003906 C 19.003906 29.28125 18.617188 28.613281 17.992188 28.257812 C 17.683594 28.082031 17.34375 27.996094 17 27.996094 C 16.644531 27.996094 16.292969 28.089844 15.976562 28.277344 L 9.976562 31.847656 L 4.863281 29.21875 C 4.332031 28.945312 4 28.402344 4 27.804688 C 4 26.816406 4.824219 26.207031 5.59375 26.207031 C 5.835938 26.207031 6.074219 26.265625 6.300781 26.382812 L 9.105469 27.78125 C 9.390625 27.925781 9.695312 27.992188 10 27.992188 C 10.386719 27.992188 10.773438 27.882812 11.109375 27.65625 L 16.9375 23.773438 L 26.386719 19.992188 L 34.78125 19.992188 M 34.78125 17.992188 L 26 17.992188 L 16 21.992188 L 10 25.992188 L 7.195312 24.59375 C 6.671875 24.328125 6.125 24.207031 5.59375 24.207031 C 3.707031 24.207031 2 25.722656 2 27.804688 C 2 29.148438 2.753906 30.382812 3.949219 30.996094 L 9.367188 33.78125 C 9.570312 33.851562 9.785156 33.886719 10 33.886719 C 10.210938 33.886719 10.425781 33.851562 10.632812 33.78125 L 17 29.992188 L 16.984375 34 L 10.890625 46.207031 C 10.328125 47.332031 10.332031 48.65625 10.894531 49.78125 L 14.726562 57.449219 C 15.296875 58.585938 16.441406 59.261719 17.660156 59.261719 C 18.011719 59.261719 18.363281 59.207031 18.714844 59.089844 L 18.789062 59.0625 C 20.535156 58.480469 21.429688 56.550781 20.746094 54.839844 L 18 47.992188 L 21.984375 41 L 22 47.992188 C 22 47.992188 24.828125 52.707031 26.601562 55.664062 C 27.226562 56.703125 28.335938 57.304688 29.507812 57.304688 C 29.867188 57.304688 30.238281 57.246094 30.597656 57.128906 L 30.671875 57.101562 C 32.476562 56.5 33.402344 54.503906 32.695312 52.738281 L 30 45.992188 L 28.984375 36 L 29 24.992188 L 34 24.992188 C 34 24.992188 35.042969 27.558594 36.0625 29.089844 C 36.734375 30.097656 37.839844 30.640625 38.96875 30.640625 C 39.636719 30.640625 40.316406 30.449219 40.921875 30.046875 L 40.996094 29.996094 C 42.640625 28.902344 43.046875 26.660156 41.894531 25.058594 L 38.175781 19.875 C 37.445312 18.703125 36.160156 17.992188 34.78125 17.992188 Z M 34.78125 17.992188 "/>
<path style=" stroke:none;fill-rule:nonzero;fill:rgb(10.196078%,73.72549%,61.176471%);fill-opacity:1;" d="M 59 35.308594 L 59 44 L 53 42 C 51.546875 41.582031 51 42.367188 51 43.878906 L 51 52 C 51 54.761719 48.308594 58 45 58 C 41.691406 58 39 55.761719 39 53 C 39 50.238281 41.691406 48 45 48 C 45.082031 48 45.164062 48 45.242188 48.003906 C 46.746094 48.054688 48 46.875 48 45.371094 L 48 33 Z M 59 35.308594 "/>
<path style=" stroke:none;fill-rule:nonzero;fill:rgb(18.039216%,80%,44.313725%);fill-opacity:1;" d="M 60 41 L 47 37 L 47 33.871094 C 47 32.9375 47.898438 32.265625 48.796875 32.527344 L 60 35 Z M 60 41 "/>
<path style=" stroke:none;fill-rule:nonzero;fill:rgb(18.039216%,80%,44.313725%);fill-opacity:1;" d="M 45 54 C 42.539062 54 40.429688 52.765625 39.503906 51 C 39.179688 51.613281 39 52.289062 39 53 C 39 55.761719 41.6875 58 45 58 C 48.3125 58 51 55.761719 51 53 C 51 52.289062 51 52 51 51 C 50.074219 52.765625 47.460938 54 45 54 Z M 45 54 "/>
<path style=" stroke:none;fill-rule:nonzero;fill:rgb(20.392157%,28.627451%,36.862745%);fill-opacity:1;" d="M 48.996094 33.328125 C 49.089844 33.328125 49.183594 33.339844 49.277344 33.367188 L 58.277344 36.101562 C 58.703125 36.226562 59 36.617188 59 37.0625 L 59 41.980469 C 59 42.550781 58.535156 42.984375 58.003906 42.984375 C 57.910156 42.984375 57.816406 42.96875 57.722656 42.941406 L 52.277344 41.226562 C 52.183594 41.199219 52.089844 41.1875 52 41.1875 C 51.464844 41.1875 51 41.621094 51 42.1875 L 51 52 C 51 54.761719 48.3125 58 45 58 C 41.691406 58 39 55.761719 39 53 C 39 50.238281 41.691406 48 45 48 C 45.625 48 46.222656 48.078125 46.78125 48.222656 C 46.863281 48.242188 46.941406 48.253906 47.019531 48.253906 C 47.546875 48.253906 48 47.808594 48 47.25 L 48 34.328125 C 48 33.761719 48.464844 33.328125 48.996094 33.328125 M 48.996094 31.328125 C 47.34375 31.328125 46 32.671875 46 34.328125 L 46 46.054688 C 45.671875 46.019531 45.335938 46 45 46 C 40.589844 46 37 49.140625 37 53 C 37 56.859375 40.589844 60 45 60 C 49.503906 60 53 55.699219 53 52 L 53 43.550781 L 57.121094 44.851562 L 57.148438 44.859375 L 57.171875 44.867188 C 57.441406 44.945312 57.722656 44.984375 58.003906 44.984375 C 59.65625 44.984375 61 43.636719 61 41.980469 L 61 37.0625 C 61 35.734375 60.105469 34.546875 58.828125 34.179688 L 49.855469 31.453125 C 49.558594 31.367188 49.277344 31.328125 48.996094 31.328125 Z M 48.996094 31.328125 "/>
<path style=" stroke:none;fill-rule:nonzero;fill:rgb(20.392157%,28.627451%,36.862745%);fill-opacity:1;" d="M 56.898438 20.375 C 56.394531 20.375 55.964844 19.996094 55.90625 19.488281 C 55.84375 18.941406 56.234375 18.445312 56.78125 18.382812 L 58.769531 18.152344 C 59.320312 18.089844 59.8125 18.484375 59.878906 19.03125 C 59.941406 19.578125 59.546875 20.074219 59 20.136719 L 57.011719 20.367188 C 56.976562 20.371094 56.9375 20.375 56.898438 20.375 Z M 55.574219 15.867188 C 55.203125 15.867188 54.847656 15.660156 54.675781 15.304688 C 54.433594 14.808594 54.636719 14.210938 55.132812 13.96875 L 56.929688 13.089844 C 57.425781 12.847656 58.023438 13.050781 58.269531 13.546875 C 58.511719 14.046875 58.304688 14.644531 57.808594 14.886719 L 56.011719 15.765625 C 55.871094 15.835938 55.722656 15.867188 55.574219 15.867188 Z M 52.839844 12.039062 C 52.585938 12.039062 52.332031 11.945312 52.136719 11.753906 C 51.742188 11.363281 51.738281 10.730469 52.128906 10.335938 L 53.53125 8.914062 C 53.921875 8.523438 54.554688 8.519531 54.945312 8.90625 C 55.339844 9.292969 55.34375 9.925781 54.957031 10.320312 L 53.550781 11.742188 C 53.355469 11.941406 53.097656 12.039062 52.839844 12.039062 Z M 48.980469 9.351562 C 48.835938 9.351562 48.691406 9.320312 48.550781 9.253906 C 48.050781 9.019531 47.839844 8.421875 48.074219 7.925781 L 48.933594 6.117188 C 49.167969 5.617188 49.765625 5.402344 50.261719 5.640625 C 50.761719 5.875 50.976562 6.472656 50.738281 6.972656 L 49.882812 8.777344 C 49.714844 9.140625 49.355469 9.351562 48.980469 9.351562 Z M 44.460938 8.070312 C 44.425781 8.070312 44.390625 8.066406 44.355469 8.066406 C 43.804688 8.007812 43.40625 7.515625 43.464844 6.964844 L 43.667969 4.976562 C 43.726562 4.429688 44.207031 4.039062 44.769531 4.085938 C 45.316406 4.144531 45.714844 4.632812 45.660156 5.183594 L 45.453125 7.171875 C 45.398438 7.6875 44.964844 8.070312 44.460938 8.070312 Z M 39.761719 8.375 C 39.308594 8.375 38.898438 8.066406 38.789062 7.605469 L 38.328125 5.660156 C 38.199219 5.121094 38.53125 4.582031 39.070312 4.457031 C 39.605469 4.328125 40.144531 4.660156 40.273438 5.199219 L 40.734375 7.144531 C 40.863281 7.679688 40.527344 8.21875 39.992188 8.347656 C 39.914062 8.367188 39.835938 8.375 39.761719 8.375 Z M 35.4375 10.214844 C 35.109375 10.214844 34.789062 10.054688 34.597656 9.757812 L 33.511719 8.074219 C 33.214844 7.609375 33.347656 6.992188 33.8125 6.691406 C 34.277344 6.394531 34.894531 6.527344 35.195312 6.992188 L 36.277344 8.675781 C 36.578125 9.136719 36.441406 9.757812 35.976562 10.054688 C 35.8125 10.164062 35.621094 10.214844 35.4375 10.214844 Z M 35.4375 10.214844 "/>
</g>
</svg>
