<?xml version="1.0" encoding="UTF-8"?>
<svg xmlns="http://www.w3.org/2000/svg" xmlns:xlink="http://www.w3.org/1999/xlink" width="96pt" height="96pt" viewBox="0 0 96 96" version="1.1">
<defs>
<linearGradient id="linear0" gradientUnits="userSpaceOnUse" x1="123.16275" y1="77.65263" x2="123.16275" y2="102.7055" gradientTransform="matrix(0.55814,0,0,0.55814,0,0)">
<stop offset="0" style="stop-color:rgb(43.921569%,87.45098%,100%);stop-opacity:1;"/>
<stop offset="1" style="stop-color:rgb(43.921569%,68.627451%,100%);stop-opacity:1;"/>
</linearGradient>
<linearGradient id="linear1" gradientUnits="userSpaceOnUse" x1="64.03775" y1="77.65263" x2="64.03775" y2="102.7055" gradientTransform="matrix(0.55814,0,0,0.55814,0,0)">
<stop offset="0" style="stop-color:rgb(43.921569%,87.45098%,100%);stop-opacity:1;"/>
<stop offset="1" style="stop-color:rgb(43.921569%,68.627451%,100%);stop-opacity:1;"/>
</linearGradient>
<linearGradient id="linear2" gradientUnits="userSpaceOnUse" x1="87.34375" y1="38.99831" x2="87.34375" y2="45.63375" gradientTransform="matrix(0.55814,0,0,0.55814,0,0)">
<stop offset="0" style="stop-color:rgb(43.921569%,87.45098%,100%);stop-opacity:1;"/>
<stop offset="1" style="stop-color:rgb(43.921569%,68.627451%,100%);stop-opacity:1;"/>
</linearGradient>
<linearGradient id="linear3" gradientUnits="userSpaceOnUse" x1="56.4375" y1="35.96681" x2="56.4375" y2="133.8805" gradientTransform="matrix(0.55814,0,0,0.55814,0,0)">
<stop offset="0" style="stop-color:rgb(0%,77.647059%,100%);stop-opacity:1;"/>
<stop offset="1" style="stop-color:rgb(0%,44.705882%,100%);stop-opacity:1;"/>
</linearGradient>
<linearGradient id="linear4" gradientUnits="userSpaceOnUse" x1="115.5625" y1="35.96681" x2="115.5625" y2="133.8805" gradientTransform="matrix(0.55814,0,0,0.55814,0,0)">
<stop offset="0" style="stop-color:rgb(0%,77.647059%,100%);stop-opacity:1;"/>
<stop offset="1" style="stop-color:rgb(0%,44.705882%,100%);stop-opacity:1;"/>
</linearGradient>
<linearGradient id="linear5" gradientUnits="userSpaceOnUse" x1="86" y1="35.96681" x2="86" y2="133.8805" gradientTransform="matrix(0.55814,0,0,0.55814,0,0)">
<stop offset="0" style="stop-color:rgb(0%,77.647059%,100%);stop-opacity:1;"/>
<stop offset="1" style="stop-color:rgb(0%,44.705882%,100%);stop-opacity:1;"/>
</linearGradient>
</defs>
<g id="surface1445129">
<path style=" stroke:none;fill-rule:nonzero;fill:url(#linear0);" d="M 64.5 42.515625 L 64.5 59.484375 C 69.1875 59.484375 72.984375 55.6875 72.984375 51 C 72.984375 46.3125 69.1875 42.515625 64.5 42.515625 Z M 64.5 42.515625 "/>
<path style=" stroke:none;fill-rule:nonzero;fill:url(#linear1);" d="M 31.5 42.515625 L 31.5 59.484375 C 36.1875 59.484375 39.984375 55.6875 39.984375 51 C 39.984375 46.3125 36.1875 42.515625 31.5 42.515625 Z M 31.5 42.515625 "/>
<path style=" stroke:none;fill-rule:nonzero;fill:url(#linear2);" d="M 78 27 L 19.5 27 C 19.5 23.6875 22.1875 21 25.5 21 L 72 21 C 75.3125 21 78 23.6875 78 27 Z M 78 27 "/>
<path style=" stroke:none;fill-rule:nonzero;fill:url(#linear3);" d="M 31.5 40.5 C 25.710938 40.5 21 45.210938 21 51 C 21 56.789062 25.710938 61.5 31.5 61.5 C 37.289062 61.5 42 56.789062 42 51 C 42 45.210938 37.289062 40.5 31.5 40.5 Z M 31.5 58.5 C 27.363281 58.5 24 55.136719 24 51 C 24 46.863281 27.363281 43.5 31.5 43.5 C 35.636719 43.5 39 46.863281 39 51 C 39 55.136719 35.636719 58.5 31.5 58.5 Z M 31.5 58.5 "/>
<path style=" stroke:none;fill-rule:nonzero;fill:url(#linear4);" d="M 64.5 40.5 C 58.710938 40.5 54 45.210938 54 51 C 54 56.789062 58.710938 61.5 64.5 61.5 C 70.289062 61.5 75 56.789062 75 51 C 75 45.210938 70.289062 40.5 64.5 40.5 Z M 64.5 58.5 C 60.363281 58.5 57 55.136719 57 51 C 57 46.863281 60.363281 43.5 64.5 43.5 C 68.636719 43.5 72 46.863281 72 51 C 72 55.136719 68.636719 58.5 64.5 58.5 Z M 64.5 58.5 "/>
<path style=" stroke:none;fill-rule:nonzero;fill:url(#linear5);" d="M 79.363281 25.644531 C 78.722656 22.15625 75.671875 19.5 72 19.5 L 25.5 19.5 C 21.878906 19.5 18.847656 22.082031 18.152344 25.5 L 18 25.5 C 13.863281 25.5 10.5 29.042969 10.5 33.402344 L 10.5 68.601562 C 10.5 72.957031 13.863281 76.5 18 76.5 L 36.324219 76.5 C 39.453125 76.5 42 73.953125 42 70.824219 C 42 67.582031 44.375 64.816406 47.40625 64.527344 C 49.125 64.363281 50.769531 64.90625 52.035156 66.058594 C 53.28125 67.195312 54 68.8125 54 70.5 L 54 70.824219 C 54 73.953125 56.546875 76.5 59.675781 76.5 L 78 76.5 C 82.136719 76.5 85.5 72.957031 85.5 68.597656 L 85.5 33.402344 C 85.5 29.535156 82.847656 26.324219 79.363281 25.644531 Z M 25.5 22.5 L 72 22.5 C 73.957031 22.5 75.625 23.753906 76.242188 25.5 L 21.257812 25.5 C 21.875 23.753906 23.542969 22.5 25.5 22.5 Z M 82.5 68.597656 C 82.5 71.300781 80.480469 73.5 78 73.5 L 59.675781 73.5 C 58.203125 73.5 57 72.296875 57 70.824219 L 57 70.5 C 57 67.96875 55.925781 65.542969 54.050781 63.839844 C 52.394531 62.332031 50.21875 61.5 47.980469 61.5 C 47.695312 61.5 47.40625 61.515625 47.121094 61.542969 C 42.566406 61.976562 39 66.050781 39 70.824219 C 39 72.296875 37.796875 73.5 36.324219 73.5 L 18 73.5 C 15.519531 73.5 13.5 71.300781 13.5 68.597656 L 13.5 33.402344 C 13.5 30.699219 15.519531 28.5 18 28.5 L 28.5 28.5 L 28.5 31.5 L 31.5 31.5 L 31.5 28.5 L 34.5 28.5 L 34.5 34.5 L 37.5 34.5 L 37.5 28.5 L 40.5 28.5 L 40.5 37.5 L 43.5 37.5 L 43.5 28.5 L 46.5 28.5 L 46.5 40.5 L 49.5 40.5 L 49.5 28.5 L 52.5 28.5 L 52.5 37.5 L 55.5 37.5 L 55.5 28.5 L 58.5 28.5 L 58.5 34.5 L 61.5 34.5 L 61.5 28.5 L 64.5 28.5 L 64.5 31.5 L 67.5 31.5 L 67.5 28.5 L 78 28.5 C 80.480469 28.5 82.5 30.699219 82.5 33.402344 Z M 82.5 68.597656 "/>
</g>
</svg>
