<?xml version="1.0" encoding="UTF-8"?>
<svg xmlns="http://www.w3.org/2000/svg" xmlns:xlink="http://www.w3.org/1999/xlink" width="64pt" height="64pt" viewBox="0 0 64 64" version="1.1">
<defs>
<linearGradient id="linear0" gradientUnits="userSpaceOnUse" x1="71.21875" y1="102.297" x2="71.21875" y2="114.19456" gradientTransform="matrix(0.394419,0,0,0.394419,-1.92,-1.92)">
<stop offset="0" style="stop-color:rgb(43.921569%,87.45098%,100%);stop-opacity:1;"/>
<stop offset="1" style="stop-color:rgb(43.921569%,68.627451%,100%);stop-opacity:1;"/>
</linearGradient>
<linearGradient id="linear1" gradientUnits="userSpaceOnUse" x1="86" y1="10.922" x2="86" y2="154.02869" gradientTransform="matrix(0.394419,0,0,0.394419,-1.92,-1.92)">
<stop offset="0" style="stop-color:rgb(0%,77.647059%,100%);stop-opacity:1;"/>
<stop offset="1" style="stop-color:rgb(0%,44.705882%,100%);stop-opacity:1;"/>
</linearGradient>
<linearGradient id="linear2" gradientUnits="userSpaceOnUse" x1="86" y1="10.922" x2="86" y2="154.02869" gradientTransform="matrix(0.394419,0,0,0.394419,-1.92,-1.92)">
<stop offset="0" style="stop-color:rgb(0%,77.647059%,100%);stop-opacity:1;"/>
<stop offset="1" style="stop-color:rgb(0%,44.705882%,100%);stop-opacity:1;"/>
</linearGradient>
<linearGradient id="linear3" gradientUnits="userSpaceOnUse" x1="56.4375" y1="10.922" x2="56.4375" y2="154.02869" gradientTransform="matrix(0.394419,0,0,0.394419,-1.92,-1.92)">
<stop offset="0" style="stop-color:rgb(0%,77.647059%,100%);stop-opacity:1;"/>
<stop offset="1" style="stop-color:rgb(0%,44.705882%,100%);stop-opacity:1;"/>
</linearGradient>
<linearGradient id="linear4" gradientUnits="userSpaceOnUse" x1="115.5625" y1="10.922" x2="115.5625" y2="154.02869" gradientTransform="matrix(0.394419,0,0,0.394419,-1.92,-1.92)">
<stop offset="0" style="stop-color:rgb(0%,77.647059%,100%);stop-opacity:1;"/>
<stop offset="1" style="stop-color:rgb(0%,44.705882%,100%);stop-opacity:1;"/>
</linearGradient>
<linearGradient id="linear5" gradientUnits="userSpaceOnUse" x1="61.8125" y1="10.922" x2="61.8125" y2="154.02869" gradientTransform="matrix(0.394419,0,0,0.394419,-1.92,-1.92)">
<stop offset="0" style="stop-color:rgb(0%,77.647059%,100%);stop-opacity:1;"/>
<stop offset="1" style="stop-color:rgb(0%,44.705882%,100%);stop-opacity:1;"/>
</linearGradient>
<linearGradient id="linear6" gradientUnits="userSpaceOnUse" x1="110.1875" y1="10.922" x2="110.1875" y2="154.02869" gradientTransform="matrix(0.394419,0,0,0.394419,-1.92,-1.92)">
<stop offset="0" style="stop-color:rgb(0%,77.647059%,100%);stop-opacity:1;"/>
<stop offset="1" style="stop-color:rgb(0%,44.705882%,100%);stop-opacity:1;"/>
</linearGradient>
</defs>
<g id="surface1442117">
<path style=" stroke:none;fill-rule:nonzero;fill:url(#linear0);" d="M 26.171875 43.660156 C 24.121094 43.660156 22.460938 42 22.460938 39.949219 C 22.460938 39.074219 23.171875 38.359375 24.050781 38.359375 L 29.878906 38.359375 L 29.878906 39.949219 C 29.878906 42 28.21875 43.660156 26.171875 43.660156 Z M 26.171875 43.660156 "/>
<path style=" stroke:none;fill-rule:nonzero;fill:url(#linear1);" d="M 32 4.441406 C 16.804688 4.441406 4.441406 16.804688 4.441406 32 C 4.441406 47.195312 16.804688 59.558594 32 59.558594 C 47.195312 59.558594 59.558594 47.195312 59.558594 32 C 59.558594 16.804688 47.195312 4.441406 32 4.441406 Z M 32 57.441406 C 17.972656 57.441406 6.558594 46.027344 6.558594 32 C 6.558594 17.972656 17.972656 6.558594 32 6.558594 C 46.027344 6.558594 57.441406 17.972656 57.441406 32 C 57.441406 46.027344 46.027344 57.441406 32 57.441406 Z M 32 57.441406 "/>
<path style=" stroke:none;fill-rule:nonzero;fill:url(#linear2);" d="M 34.121094 21.398438 C 34.121094 19.648438 35.546875 18.21875 37.300781 18.21875 L 41.539062 18.21875 C 42.710938 18.21875 43.660156 19.171875 43.660156 20.339844 C 43.660156 21.507812 42.710938 22.460938 41.539062 22.460938 L 36.59375 22.460938 L 36.59375 24.578125 L 41.539062 24.578125 C 43.878906 24.578125 45.78125 22.679688 45.78125 20.339844 C 45.78125 18 43.878906 16.101562 41.539062 16.101562 L 37.300781 16.101562 C 34.378906 16.101562 32 18.476562 32 21.398438 L 32 34.121094 L 24.578125 34.121094 C 21.074219 34.121094 18.21875 36.972656 18.21875 40.480469 C 18.21875 44.570312 21.550781 47.898438 25.640625 47.898438 L 26.699219 47.898438 C 30.789062 47.898438 34.121094 44.570312 34.121094 40.480469 Z M 32 40.480469 C 32 43.402344 29.621094 45.78125 26.699219 45.78125 L 25.640625 45.78125 C 22.71875 45.78125 20.339844 43.402344 20.339844 40.480469 C 20.339844 38.140625 22.242188 36.238281 24.578125 36.238281 L 32 36.238281 Z M 32 40.480469 "/>
<path style=" stroke:none;fill-rule:nonzero;fill:url(#linear3);" d="M 32 10.800781 L 32 8.679688 C 19.140625 8.679688 8.679688 19.140625 8.679688 32 L 10.800781 32 C 10.800781 20.308594 20.308594 10.800781 32 10.800781 Z M 32 10.800781 "/>
<path style=" stroke:none;fill-rule:nonzero;fill:url(#linear4);" d="M 53.199219 32 C 53.199219 43.691406 43.691406 53.199219 32 53.199219 L 32 55.320312 C 44.859375 55.320312 55.320312 44.859375 55.320312 32 Z M 53.199219 32 "/>
<path style=" stroke:none;fill-rule:nonzero;fill:url(#linear5);" d="M 32 15.039062 L 32 12.921875 C 21.480469 12.921875 12.921875 21.480469 12.921875 32 L 15.039062 32 C 15.039062 22.648438 22.648438 15.039062 32 15.039062 Z M 32 15.039062 "/>
<path style=" stroke:none;fill-rule:nonzero;fill:url(#linear6);" d="M 32 48.960938 L 32 51.078125 C 42.519531 51.078125 51.078125 42.519531 51.078125 32 L 48.960938 32 C 48.960938 41.351562 41.351562 48.960938 32 48.960938 Z M 32 48.960938 "/>
</g>
</svg>
