<?xml version="1.0" encoding="UTF-8"?>
<svg xmlns="http://www.w3.org/2000/svg" xmlns:xlink="http://www.w3.org/1999/xlink" width="64pt" height="64pt" viewBox="0 0 64 64" version="1.1">
<g id="surface1264384">
<path style=" stroke:none;fill-rule:nonzero;fill:rgb(14.117647%,15.686275%,18.823529%);fill-opacity:1;" d="M 4.5 8 C 3.671875 8 3 8.671875 3 9.5 C 3 10.328125 3.671875 11 4.5 11 C 5.328125 11 6 10.328125 6 9.5 C 6 8.671875 5.328125 8 4.5 8 Z M 33.535156 8.046875 C 33.125 8.035156 32.710938 8.039062 32.300781 8.050781 L 12.097656 8.050781 C 11.300781 8.050781 10.550781 8.648438 10.5 9.449219 C 10.449219 10.300781 11.148438 11.050781 12 11.050781 L 32.25 11.050781 C 35.851562 10.949219 39.25 12.898438 41.050781 16.050781 L 41.199219 16.300781 C 41.5 16.699219 42 17 42.550781 17 L 47.699219 17 C 50.5 19.75 52.398438 23.101562 53.351562 26.800781 L 50.75 31.25 C 50.5 31.699219 50.5 32.300781 50.75 32.75 L 53.351562 37.199219 C 52.398438 40.898438 50.5 44.25 47.699219 47 L 42.550781 47 C 42 47 41.5 47.300781 41.25 47.75 L 41.101562 48 C 39.300781 51.148438 35.898438 53.101562 32.300781 53 L 10.101562 53 C 9.300781 53 8.550781 53.601562 8.5 54.402344 C 8.449219 55.300781 9.148438 56 10 56 L 32.300781 56 C 38.898438 56.199219 45.300781 53.648438 49.949219 49 C 54.5 44.449219 57 38.398438 57 32 C 57 25.601562 54.5 19.550781 49.949219 15.050781 C 45.589844 10.691406 39.695312 8.175781 33.535156 8.046875 Z M 17.167969 14.554688 C 16.773438 14.550781 16.375 14.699219 16.050781 15 C 13.851562 17.199219 12.101562 19.800781 10.902344 22.648438 C 10.800781 22.851562 10.648438 22.949219 10.449219 22.949219 L 2.097656 22.949219 C 1.25 23 0.550781 23.601562 0.5 24.402344 C 0.449219 25.300781 1.148438 26 2 26 L 9.148438 26 C 9.449219 26 9.699219 26.300781 9.648438 26.597656 C 9.199219 28.597656 8.949219 30.648438 9.050781 32.75 C 9.101562 33.550781 9.75 34.199219 10.550781 34.199219 L 10.597656 34.199219 C 11.449219 34.148438 12.101562 33.5 12.050781 32.648438 C 11.851562 26.800781 14.050781 21.300781 18.148438 17.148438 C 18.699219 16.601562 18.800781 15.648438 18.25 15.050781 C 17.949219 14.726562 17.5625 14.5625 17.167969 14.554688 Z M 59.472656 19.824219 C 59.28125 19.824219 59.085938 19.863281 58.902344 19.949219 C 58.152344 20.25 57.75 21.148438 58.050781 21.902344 C 59.351562 25.101562 60 28.5 60 32 C 60 32.851562 60.648438 33.5 61.5 33.5 C 62.351562 33.5 63 32.851562 63 32 C 63 28.101562 62.25 24.300781 60.851562 20.75 C 60.585938 20.1875 60.042969 19.824219 59.472656 19.824219 Z M 29.550781 24.5 C 29 24.5 28.5 24.800781 28.25 25.25 L 24.800781 31.25 C 24.550781 31.699219 24.550781 32.300781 24.800781 32.75 L 28.25 38.75 C 28.5 39.199219 29 39.5 29.550781 39.5 L 36.5 39.5 C 37.050781 39.5 37.550781 39.199219 37.800781 38.75 L 41.25 32.75 C 41.5 32.300781 41.5 31.699219 41.25 31.25 L 37.800781 25.25 C 37.5 24.800781 37 24.5 36.449219 24.5 Z M 17.148438 37.550781 L 3.949219 38 C 3.101562 38.050781 2.5 38.75 2.5 39.550781 C 2.550781 40.351562 3.199219 41 4 41 L 4.050781 41 L 10.300781 40.75 C 10.5 40.75 10.699219 40.851562 10.800781 41.050781 C 12 44 13.75 46.648438 16.050781 48.949219 C 16.351562 49.25 16.75 49.402344 17.097656 49.402344 C 17.449219 49.402344 17.800781 49.300781 18.097656 49.050781 C 18.75 48.449219 18.699219 47.398438 18.097656 46.800781 C 16.5 45.199219 15.199219 43.351562 14.199219 41.351562 C 14.050781 41.050781 14.300781 40.652344 14.648438 40.652344 L 17.199219 40.550781 C 18 40.5 18.699219 39.898438 18.699219 39.050781 C 18.699219 38.199219 18 37.5 17.148438 37.550781 Z M 17.148438 37.550781 "/>
</g>
</svg>
